<svg xmlns="http://www.w3.org/2000/svg" viewBox="-1.7 -1.7 24 24" id="Search-User--Streamline-Pixel.svg" height="24" width="24" ><desc>Search User Streamline Icon: https://streamlinehq.com</desc><title>search-user</title><g><path d="M19.225125 15.2791875h-0.98971875V14.2959375h-0.98325v-0.98971875h-0.98971875v-1.9665h-0.98325v1.9665H14.2959375v0.98971875h-0.98971875v0.98325h-1.9665v0.98325h1.9665v0.98971875h0.98971875v0.98325h0.98325v0.98971875h0.98325v0.98325h2.9626875v-0.98325h0.98325v-2.9626875h-0.98325Zm0 2.95621875h-0.98971875v-0.98325h-0.98325v-0.98971875h-0.98971875v-0.98325h0.98971875v0.98325h0.98325v0.98971875h0.98971875Z" fill="#fbfbfb" stroke-width="1"></path><path d="M16.2624375 6.41053125h0.98971875v4.9291875h-0.98971875Z" fill="#fbfbfb" stroke-width="1"></path><path d="M15.2791875 4.4375625h0.98325v1.9729687499999997h-0.98325Z" fill="#fbfbfb" stroke-width="1"></path><path d="M14.2959375 3.4543125h0.98325v0.98325H14.2959375Z" fill="#fbfbfb" stroke-width="1"></path><path d="M13.30621875 2.46459375h0.98971875v0.98971875h-0.98971875Z" fill="#fbfbfb" stroke-width="1"></path><path d="M11.339718750000001 12.32296875h0.98325v0.98325h-0.98325Z" fill="#fbfbfb" stroke-width="1"></path><path d="M11.339718750000001 1.48134375h1.9665v0.98325h-1.9665Z" fill="#fbfbfb" stroke-width="1"></path><path d="M6.41053125 13.30621875h4.9291875v0.98971875H6.41053125Z" fill="#fbfbfb" stroke-width="1"></path><path d="M10.35 8.37703125h0.98971875V10.35H10.35Z" fill="#fbfbfb" stroke-width="1"></path><path d="M6.41053125 16.2624375h4.9291875v0.98971875H6.41053125Z" fill="#fbfbfb" stroke-width="1"></path><path d="M7.39378125 11.339718750000001H10.35v0.98325h-2.95621875Z" fill="#fbfbfb" stroke-width="1"></path><path d="M6.41053125 0.491625h4.9291875v0.98971875H6.41053125Z" fill="#fbfbfb" stroke-width="1"></path><path d="M6.41053125 8.37703125h0.98325V10.35H6.41053125Z" fill="#fbfbfb" stroke-width="1"></path><path d="M4.4375625 15.2791875h1.9729687499999997v0.98325H4.4375625Z" fill="#fbfbfb" stroke-width="1"></path><path d="M5.4208125 12.32296875h0.98971875v0.98325H5.4208125Z" fill="#fbfbfb" stroke-width="1"></path><path d="M4.4375625 1.48134375h1.9729687499999997v0.98325H4.4375625Z" fill="#fbfbfb" stroke-width="1"></path><path d="m5.4208125 7.39378125 0.98971875 0 0 -0.98325 4.9291875 0 0 0.98325 0.98325 0 0 4.9291875 0.98325 0 0 -6.90215625 -0.98325 0 0 -0.98325 -0.98325 0 0 -0.98325 -4.9291875 0 0 0.98325 -0.98971875 0 0 0.98325 -0.98325 0 0 6.90215625 0.98325 0 0 -4.9291875z" fill="#fbfbfb" stroke-width="1"></path><path d="M3.44784375 14.2959375h0.98971875v0.98325H3.44784375Z" fill="#fbfbfb" stroke-width="1"></path><path d="M3.44784375 2.46459375h0.98971875v0.98971875H3.44784375Z" fill="#fbfbfb" stroke-width="1"></path><path d="M2.46459375 13.30621875h0.98325v0.98971875H2.46459375Z" fill="#fbfbfb" stroke-width="1"></path><path d="M2.46459375 3.4543125h0.98325v0.98325H2.46459375Z" fill="#fbfbfb" stroke-width="1"></path><path d="M1.48134375 11.339718750000001h0.98325v1.9665H1.48134375Z" fill="#fbfbfb" stroke-width="1"></path><path d="M1.48134375 4.4375625h0.98325v1.9729687499999997H1.48134375Z" fill="#fbfbfb" stroke-width="1"></path><path d="M0.491625 6.41053125h0.98971875v4.9291875H0.491625Z" fill="#fbfbfb" stroke-width="1"></path></g></svg>