<svg xmlns="http://www.w3.org/2000/svg" viewBox="-1.7 -1.7 24 24" id="Food-Drink-Coffee--Streamline-Pixel.svg" height="24" width="24" ><desc>Food Drink Coffee Streamline Icon: https://streamlinehq.com</desc><title>food-drink-coffee</title><g><path d="M19.21865625 9.858375h0.98971875v2.95621875h-0.98971875Z" fill="#fbfbfb" stroke-width="1"></path><path d="M18.23540625 12.814593749999998h0.98325v0.98325h-0.98325Z" fill="#fbfbfb" stroke-width="1"></path><path d="M18.23540625 8.875125h0.98325v0.98325h-0.98325Z" fill="#fbfbfb" stroke-width="1"></path><path d="M17.25215625 16.76053125h0.98325v0.98325h-0.98325Z" fill="#fbfbfb" stroke-width="1"></path><path d="M17.25215625 10.841625h0.98325v0.98971875h-0.98325Z" fill="#fbfbfb" stroke-width="1"></path><path d="M15.2791875 7.885406249999999h2.95621875v0.98971875h-2.95621875Z" fill="#fbfbfb" stroke-width="1"></path><path d="M16.2624375 17.743781249999998h0.98971875v0.98325h-0.98971875Z" fill="#fbfbfb" stroke-width="1"></path><path d="M16.2624375 15.770812499999998h0.98971875v0.98971875h-0.98971875Z" fill="#fbfbfb" stroke-width="1"></path><path d="m15.2791875 13.797843749999998 0 0.98971875 -0.98971875 0 0 0.98325 1.9729687499999997 0 0 -0.98325 1.9729687499999997 0 0 -0.98971875 -2.95621875 0z" fill="#fbfbfb" stroke-width="1"></path><path d="m15.2791875 9.858375 0 2.95621875 1.9729687499999997 0 0 -0.98325 -0.98971875 0 0 -0.98971875 0.98971875 0 0 -0.98325 -1.9729687499999997 0z" fill="#fbfbfb" stroke-width="1"></path><path d="M14.28946875 18.72703125h1.9729687499999997v0.98971875h-1.9729687499999997Z" fill="#fbfbfb" stroke-width="1"></path><path d="M14.28946875 6.90215625h0.98971875v0.98325h-0.98971875Z" fill="#fbfbfb" stroke-width="1"></path><path d="M12.32296875 15.770812499999998h1.9665v0.98971875h-1.9665Z" fill="#fbfbfb" stroke-width="1"></path><path d="M11.33325 5.9124375h2.95621875v0.98971875h-2.95621875Z" fill="#fbfbfb" stroke-width="1"></path><path d="M4.4375625 19.71675h9.85190625V20.7H4.4375625Z" fill="#fbfbfb" stroke-width="1"></path><path d="m5.4208125 7.885406249999999 0 0.98971875 -0.98325 0 0 0.98325 0.98325 0 0 0.98325 7.885406249999999 0 0 -0.98325 0.98325 0 0 -0.98325 -0.98325 0 0 -0.98971875 -7.885406249999999 0z" fill="#fbfbfb" stroke-width="1"></path><path d="M12.32296875 0.98325h0.98325v1.9729687499999997h-0.98325Z" fill="#fbfbfb" stroke-width="1"></path><path d="M10.35 0h1.9729687499999997v0.98325H10.35Z" fill="#fbfbfb" stroke-width="1"></path><path d="M11.33325 2.95621875h0.98971875V3.9459374999999994h-0.98971875Z" fill="#fbfbfb" stroke-width="1"></path><path d="M9.36028125 0.98325H10.35v0.98971875h-0.98971875Z" fill="#fbfbfb" stroke-width="1"></path><path d="M9.36028125 4.9291875H10.35v1.9729687499999997h-0.98971875Z" fill="#fbfbfb" stroke-width="1"></path><path d="M7.39378125 0h1.9665v0.98325h-1.9665Z" fill="#fbfbfb" stroke-width="1"></path><path d="M8.37703125 3.9459374999999994h0.98325v0.98325h-0.98325Z" fill="#fbfbfb" stroke-width="1"></path><path d="M7.39378125 2.95621875h0.98325V3.9459374999999994h-0.98325Z" fill="#fbfbfb" stroke-width="1"></path><path d="M6.4040625 16.76053125h5.91890625v0.98325H6.4040625Z" fill="#fbfbfb" stroke-width="1"></path><path d="M6.4040625 0.98325h0.98971875v1.9729687499999997H6.4040625Z" fill="#fbfbfb" stroke-width="1"></path><path d="M4.4375625 5.9124375h3.9394687499999996v0.98971875H4.4375625Z" fill="#fbfbfb" stroke-width="1"></path><path d="M4.4375625 15.770812499999998H6.4040625v0.98971875H4.4375625Z" fill="#fbfbfb" stroke-width="1"></path><path d="M2.46459375 18.72703125h1.9729687499999997v0.98971875H2.46459375Z" fill="#fbfbfb" stroke-width="1"></path><path d="m4.4375625 13.797843749999998 -0.98971875 0 0 0.98971875 -0.98325 0 0 0.98325 1.9729687499999997 0 0 -1.9729687499999997z" fill="#fbfbfb" stroke-width="1"></path><path d="M3.44784375 6.90215625h0.98971875v0.98325H3.44784375Z" fill="#fbfbfb" stroke-width="1"></path><path d="M2.46459375 7.885406249999999h0.98325v5.9124375H2.46459375Z" fill="#fbfbfb" stroke-width="1"></path><path d="M1.4748749999999997 17.743781249999998h0.98971875v0.98325H1.4748749999999997Z" fill="#fbfbfb" stroke-width="1"></path><path d="M1.4748749999999997 15.770812499999998h0.98971875v0.98971875H1.4748749999999997Z" fill="#fbfbfb" stroke-width="1"></path><path d="M0.491625 16.76053125h0.98325v0.98325H0.491625Z" fill="#fbfbfb" stroke-width="1"></path></g></svg>