<svg xmlns="http://www.w3.org/2000/svg" viewBox="-1.7 -1.7 24 24" id="Logo-Linkedin--Streamline-Pixel.svg" height="24" width="24" ><desc>Logo Linkedin Streamline Icon: https://streamlinehq.com</desc><title>logo-linkedin</title><g><path d="M19.710281249999998 1.9729687499999997H20.7v16.7540625h-0.98971875Z" fill="#fbfbfb" stroke-width="1"></path><path d="M18.72703125 18.72703125h0.98325v0.98971875h-0.98325Z" fill="#fbfbfb" stroke-width="1"></path><path d="M18.72703125 0.98325h0.98325v0.98971875h-0.98325Z" fill="#fbfbfb" stroke-width="1"></path><path d="M17.7373125 2.95621875h0.98971875v14.7875625h-0.98971875Z" fill="#fbfbfb" stroke-width="1"></path><path d="M1.9665 19.71675h16.76053125V20.7H1.9665Z" fill="#fbfbfb" stroke-width="1"></path><path d="M2.95621875 17.743781249999998h14.78109375v0.98325H2.95621875Z" fill="#fbfbfb" stroke-width="1"></path><path d="m14.78109375 9.858375 -0.98325 0 0 -0.98971875 -1.9729687499999997 0 0 0.98971875 -0.98325 0 0 -0.98971875 -1.9729687499999997 0 0 5.91890625 1.9729687499999997 0 0 -2.95621875 0.98325 0 0 -0.98971875 0.98971875 0 0 0.98971875 0.98325 0 0 2.95621875 1.9729687499999997 0 0 -3.9459374999999994 -0.98971875 0 0 -0.98325z" fill="#fbfbfb" stroke-width="1"></path><path d="M4.9227187500000005 8.86865625h1.9729687499999997v5.91890625H4.9227187500000005Z" fill="#fbfbfb" stroke-width="1"></path><path d="M4.9227187500000005 5.9124375h1.9729687499999997v1.9729687499999997H4.9227187500000005Z" fill="#fbfbfb" stroke-width="1"></path><path d="M2.95621875 1.9729687499999997h14.78109375v0.98325H2.95621875Z" fill="#fbfbfb" stroke-width="1"></path><path d="M1.9665 0h16.76053125v0.98325H1.9665Z" fill="#fbfbfb" stroke-width="1"></path><path d="M1.9665 2.95621875h0.98971875v14.7875625H1.9665Z" fill="#fbfbfb" stroke-width="1"></path><path d="M0.98325 18.72703125h0.98325v0.98971875H0.98325Z" fill="#fbfbfb" stroke-width="1"></path><path d="M0.98325 0.98325h0.98325v0.98971875H0.98325Z" fill="#fbfbfb" stroke-width="1"></path><path d="M0 1.9729687499999997h0.98325v16.7540625H0Z" fill="#fbfbfb" stroke-width="1"></path></g></svg>