<svg xmlns="http://www.w3.org/2000/svg" viewBox="-1.7 -1.7 24 24" id="Money-Payments-Diamond--Streamline-Pixel.svg" height="24" width="24" ><desc>Money Payments Diamond Streamline Icon: https://streamlinehq.com</desc><title>money-payments-diamond</title><g><path d="M19.710281249999998 18.72703125H20.7v0.98971875h-0.98971875Z" fill="#fbfbfb" stroke-width="1"></path><path d="m19.710281249999998 0.98325 -0.98325 0 0 0.98971875 -0.98325 0 0 0.98325 0.98325 0 0 0.98971875 0.98325 0 0 -0.98971875 0.98971875 0 0 -0.98325 -0.98971875 0 0 -0.98971875z" fill="#fbfbfb" stroke-width="1"></path><path d="M18.72703125 14.7875625h0.98325v0.98325h-0.98325Z" fill="#fbfbfb" stroke-width="1"></path><path d="M17.743781249999998 15.770812499999998h0.98325v0.98971875h-0.98325Z" fill="#fbfbfb" stroke-width="1"></path><path d="M17.743781249999998 13.797843749999998h0.98325v0.98971875h-0.98325Z" fill="#fbfbfb" stroke-width="1"></path><path d="M17.743781249999998 9.858375h0.98325v0.98325h-0.98325Z" fill="#fbfbfb" stroke-width="1"></path><path d="M17.743781249999998 5.9124375h0.98325v0.98971875h-0.98325Z" fill="#fbfbfb" stroke-width="1"></path><path d="M16.7540625 14.7875625h0.98971875v0.98325H16.7540625Z" fill="#fbfbfb" stroke-width="1"></path><path d="M16.7540625 10.841625h0.98971875v0.98971875H16.7540625Z" fill="#fbfbfb" stroke-width="1"></path><path d="M16.7540625 4.9291875h0.98971875v0.98325H16.7540625Z" fill="#fbfbfb" stroke-width="1"></path><path d="M15.770812499999998 11.831343749999998h0.98325v0.98325h-0.98325Z" fill="#fbfbfb" stroke-width="1"></path><path d="M15.770812499999998 3.9459374999999994h0.98325v0.98325h-0.98325Z" fill="#fbfbfb" stroke-width="1"></path><path d="m15.770812499999998 20.7 0 -0.98325 0.98325 0 0 -0.98971875 -0.98325 0 0 -0.98325 -0.98971875 0 0 0.98325 -0.98325 0 0 0.98971875 0.98325 0 0 0.98325 0.98971875 0z" fill="#fbfbfb" stroke-width="1"></path><path d="M14.78109375 12.814593749999998h0.98971875v0.98325h-0.98971875Z" fill="#fbfbfb" stroke-width="1"></path><path d="M13.797843749999998 13.797843749999998h0.98325v0.98971875h-0.98325Z" fill="#fbfbfb" stroke-width="1"></path><path d="M13.797843749999998 9.858375h0.98325v0.98325h-0.98325Z" fill="#fbfbfb" stroke-width="1"></path><path d="M13.797843749999998 5.9124375h0.98325v0.98971875h-0.98325Z" fill="#fbfbfb" stroke-width="1"></path><path d="M13.797843749999998 0.98325h0.98325v0.98971875h-0.98325Z" fill="#fbfbfb" stroke-width="1"></path><path d="M12.814593749999998 14.7875625h0.98325v0.98325h-0.98325Z" fill="#fbfbfb" stroke-width="1"></path><path d="M12.814593749999998 10.841625h0.98325v1.9729687499999997h-0.98325Z" fill="#fbfbfb" stroke-width="1"></path><path d="M12.814593749999998 4.9291875h0.98325v0.98325h-0.98325Z" fill="#fbfbfb" stroke-width="1"></path><path d="M11.824875 12.814593749999998h0.98971875v1.9729687499999997h-0.98971875Z" fill="#fbfbfb" stroke-width="1"></path><path d="m11.824875 14.7875625 -0.98325 0 0 2.95621875 0.98325 0 0 -0.98325 0.98971875 0 0 -0.98971875 -0.98971875 0 0 -0.98325z" fill="#fbfbfb" stroke-width="1"></path><path d="M10.841625 0h0.98325v0.98325h-0.98325Z" fill="#fbfbfb" stroke-width="1"></path><path d="M8.86865625 17.743781249999998h1.9729687499999997v0.98325h-1.9729687499999997Z" fill="#fbfbfb" stroke-width="1"></path><path d="m8.86865625 14.7875625 -0.98325 0 0 0.98325 -0.98971875 0 0 0.98971875 0.98971875 0 0 0.98325 0.98325 0 0 -2.95621875z" fill="#fbfbfb" stroke-width="1"></path><path d="M6.8956875 12.814593749999998h0.98971875v1.9729687499999997h-0.98971875Z" fill="#fbfbfb" stroke-width="1"></path><path d="M5.9124375 14.7875625h0.98325v0.98325H5.9124375Z" fill="#fbfbfb" stroke-width="1"></path><path d="M5.9124375 10.841625h0.98325v1.9729687499999997H5.9124375Z" fill="#fbfbfb" stroke-width="1"></path><path d="M5.9124375 4.9291875h0.98325v0.98325H5.9124375Z" fill="#fbfbfb" stroke-width="1"></path><path d="M5.9124375 0.98325h0.98325v0.98971875H5.9124375Z" fill="#fbfbfb" stroke-width="1"></path><path d="M4.9291875 17.743781249999998h0.98325v0.98325H4.9291875Z" fill="#fbfbfb" stroke-width="1"></path><path d="M4.9291875 13.797843749999998h0.98325v0.98971875H4.9291875Z" fill="#fbfbfb" stroke-width="1"></path><path d="M4.9291875 9.858375h0.98325v0.98325H4.9291875Z" fill="#fbfbfb" stroke-width="1"></path><path d="M4.9291875 5.9124375h0.98325v0.98971875H4.9291875Z" fill="#fbfbfb" stroke-width="1"></path><path d="m6.8956875 3.9459374999999994 0 0.98325 0.98971875 0 0 -0.98325 3.9394687499999996 0 0 0.98325 0.98971875 0 0 -0.98325 2.95621875 0 0 -0.98971875 -11.831343749999998 0 0 0.98971875 2.95621875 0z" fill="#fbfbfb" stroke-width="1"></path><path d="M3.9394687499999996 12.814593749999998h0.98971875v0.98325H3.9394687499999996Z" fill="#fbfbfb" stroke-width="1"></path><path d="M2.95621875 11.831343749999998h0.98325v0.98325H2.95621875Z" fill="#fbfbfb" stroke-width="1"></path><path d="M2.95621875 3.9459374999999994h0.98325v0.98325H2.95621875Z" fill="#fbfbfb" stroke-width="1"></path><path d="M1.9665 15.770812499999998h0.98971875v0.98971875H1.9665Z" fill="#fbfbfb" stroke-width="1"></path><path d="M1.9665 10.841625h0.98971875v0.98971875H1.9665Z" fill="#fbfbfb" stroke-width="1"></path><path d="M1.9665 4.9291875h0.98971875v0.98325H1.9665Z" fill="#fbfbfb" stroke-width="1"></path><path d="M0.98325 19.71675h0.98325V20.7H0.98325Z" fill="#fbfbfb" stroke-width="1"></path><path d="M0.98325 16.76053125h0.98325v0.98325H0.98325Z" fill="#fbfbfb" stroke-width="1"></path><path d="M0.98325 14.7875625h0.98325v0.98325H0.98325Z" fill="#fbfbfb" stroke-width="1"></path><path d="M0.98325 9.858375h0.98325v0.98325H0.98325Z" fill="#fbfbfb" stroke-width="1"></path><path d="m0.98325 8.86865625 2.95621875 0 0 0.98971875 0.98971875 0 0 -0.98971875 9.85190625 0 0 0.98971875 0.98971875 0 0 -0.98971875 2.95621875 0 0 0.98971875 0.98325 0 0 -2.95621875 -0.98325 0 0 0.98325 -2.95621875 0 0 -0.98325 -0.98971875 0 0 0.98325 -9.85190625 0 0 -0.98325 -0.98971875 0 0 0.98325 -2.95621875 0 0 -0.98325 -0.98325 0 0 2.95621875 0.98325 0 0 -0.98971875z" fill="#fbfbfb" stroke-width="1"></path><path d="M0.98325 5.9124375h0.98325v0.98971875H0.98325Z" fill="#fbfbfb" stroke-width="1"></path><path d="m0.98325 2.95621875 0.98325 0 0 -0.98325 0.98971875 0 0 -0.98971875 -0.98971875 0 0 -0.98325 -0.98325 0 0 0.98325 -0.98325 0 0 0.98971875 0.98325 0 0 0.98325z" fill="#fbfbfb" stroke-width="1"></path><path d="M0 15.770812499999998h0.98325v0.98971875H0Z" fill="#fbfbfb" stroke-width="1"></path></g></svg>