<svg xmlns="http://www.w3.org/2000/svg" viewBox="-1.7 -1.7 24 24" id="Chat-Email--Streamline-Pixel.svg" height="24" width="24"><desc>Chat Email Streamline Icon: https://streamlinehq.com</desc><title>chat-email</title><g><path d="M19.710281249999998 0.98971875H20.7v9.858375h-0.98971875Z" fill="#fbfbfb" stroke-width="1"></path><path d="m18.72703125 12.814593749999998 -0.98325 0 0 0.98971875 1.9665 0 0 -2.95621875 -0.98325 0 0 1.9665z" fill="#fbfbfb" stroke-width="1"></path><path d="M16.7540625 11.831343749999998h0.98971875v0.98325H16.7540625Z" fill="#fbfbfb" stroke-width="1"></path><path d="M15.770812499999998 7.885406249999999h2.95621875v0.98971875h-2.95621875Z" fill="#fbfbfb" stroke-width="1"></path><path d="M15.770812499999998 5.91890625h2.95621875v0.98325h-2.95621875Z" fill="#fbfbfb" stroke-width="1"></path><path d="M16.7540625 3.9459374999999994h1.9729687499999997v0.98325H16.7540625Z" fill="#fbfbfb" stroke-width="1"></path><path d="M13.797843749999998 1.9729687499999997h4.9291875v0.98971875h-4.9291875Z" fill="#fbfbfb" stroke-width="1"></path><path d="M15.770812499999998 10.848093749999999h0.98325v0.98325h-0.98325Z" fill="#fbfbfb" stroke-width="1"></path><path d="m14.7875625 9.858375 0 -2.95621875 -0.98971875 0 0 9.858375 0.98971875 0 0 -5.9124375 0.98325 0 0 -0.98971875 -0.98325 0z" fill="#fbfbfb" stroke-width="1"></path><path d="M7.885406249999999 3.9459374999999994h7.885406249999999v0.98325H7.885406249999999Z" fill="#fbfbfb" stroke-width="1"></path><path d="M9.858375 16.76053125h3.9394687499999996v0.98325h-3.9394687499999996Z" fill="#fbfbfb" stroke-width="1"></path><path d="M9.858375 1.9729687499999997h2.95621875v0.98971875h-2.95621875Z" fill="#fbfbfb" stroke-width="1"></path><path d="M2.95621875 8.875125v5.9124375h8.86865625v-5.9124375Zm7.885406249999999 1.9729687499999997h-0.98325v0.98325h-0.98971875v0.98325H5.9124375v-0.98325H4.9291875v-0.98325H3.9394687499999996v-0.98971875h0.98971875v0.98971875h0.98325v0.98325h2.95621875v-0.98325h0.98971875v-0.98971875h0.98325Z" fill="#fbfbfb" stroke-width="1"></path><path d="m8.86865625 19.71675 -0.98325 0 0 0.98325 1.9729687499999997 0 0 -2.95621875 -0.98971875 0 0 1.9729687499999997z" fill="#fbfbfb" stroke-width="1"></path><path d="M7.885406249999999 1.9729687499999997h0.98325v0.98971875h-0.98325Z" fill="#fbfbfb" stroke-width="1"></path><path d="M6.8956875 0h12.814593749999998v0.98971875H6.8956875Z" fill="#fbfbfb" stroke-width="1"></path><path d="M6.8956875 18.7335h0.98971875v0.98325h-0.98971875Z" fill="#fbfbfb" stroke-width="1"></path><path d="M5.9124375 17.743781249999998h0.98325v0.98971875H5.9124375Z" fill="#fbfbfb" stroke-width="1"></path><path d="M0.98325 16.76053125h4.9291875v0.98325H0.98325Z" fill="#fbfbfb" stroke-width="1"></path><path d="m13.797843749999998 6.90215625 0 -0.98325 -6.90215625 0 0 -4.9291875 -0.98325 0 0 4.9291875 -4.9291875 0 0 0.98325 12.814593749999998 0z" fill="#fbfbfb" stroke-width="1"></path><path d="M0 6.90215625h0.98325v9.858375H0Z" fill="#fbfbfb" stroke-width="1"></path></g></svg>