<svg xmlns="http://www.w3.org/2000/svg" viewBox="-1.7 -1.7 24 24" id="Interface-Essential-Home-1--Streamline-Pixel.svg" height="24" width="24"><desc>Interface Essential Home 1 Streamline Icon: https://streamlinehq.com</desc><title>interface-essential-home-1</title><g><path d="m4.434328125 8.86865625 0 -0.98325 0.98971875 0 0 -0.98325 0.98325 0 0 -0.98971875 0.98325 0 0 -0.98325 0.98971875 0 0 -0.98325 0.98325 0 0 -0.98971875 1.9729687499999997 0 0 0.98971875 0.98325 0 0 0.98325 0.98971875 0 0 0.98325 0.98325 0 0 0.98971875 0.98325 0 0 0.98325 0.98971875 0 0 0.98325 0.98325 0 0 10.848093749999999 0.98971875 0 0 -8.875125 0.98325 0 0 -0.98325 0.98325 0 0 -0.98971875 -0.98325 0 0 -0.98325 -0.98325 0 0 -0.98325 -0.98971875 0 0 -0.98971875 -0.98325 0 0 -0.98325 -0.98971875 0 0 -0.98325 -0.98325 0 0 -0.98971875 -0.98325 0 0 -0.98325 -0.98971875 0 0 -0.98971875 -0.98325 0 0 -0.98325 -1.9729687499999997 0 0 0.98325 -0.98325 0 0 0.98971875 -0.98971875 0 0 0.98325 -0.98325 0 0 0.98971875 -0.98325 0 0 0.98325 -0.98971875 0 0 0.98325 -0.98325 0 0 0.98971875 -0.98325 0 0 0.98325 -0.98971875 0 0 0.98325 -0.98325 0 0 0.98971875 0.98325 0 0 0.98325 0.98971875 0 0 8.875125 0.98325 0 0 -10.848093749999999 0.98325 0z" fill="#fbfbfb" stroke-width="1"></path><path d="m17.248921875 20.7 0 -0.98325 -3.9394687499999996 0 0 -7.885406249999999 -0.98971875 0 0 7.885406249999999 -3.9394687499999996 0 0 -7.885406249999999 -0.98971875 0 0 7.885406249999999 -3.9394687499999996 0 0 0.98325 13.797843749999998 0z" fill="#fbfbfb" stroke-width="1"></path><path d="M14.292703125 12.814593749999998h1.9729687499999997v1.9729687499999997h-1.9729687499999997Z" fill="#fbfbfb" stroke-width="1"></path><path d="M11.336484375 5.9124375h0.98325v1.9729687499999997h-0.98325Z" fill="#fbfbfb" stroke-width="1"></path><path d="M9.363515625 4.9291875h1.9729687499999997v0.98325h-1.9729687499999997Z" fill="#fbfbfb" stroke-width="1"></path><path d="M9.363515625 14.7875625h0.98971875v0.98325h-0.98971875Z" fill="#fbfbfb" stroke-width="1"></path><path d="M8.380265625 10.841625h3.9394687499999996v0.98971875h-3.9394687499999996Z" fill="#fbfbfb" stroke-width="1"></path><path d="M9.363515625 7.885406249999999h1.9729687499999997v0.98325h-1.9729687499999997Z" fill="#fbfbfb" stroke-width="1"></path><path d="M8.380265625 5.9124375h0.98325v1.9729687499999997h-0.98325Z" fill="#fbfbfb" stroke-width="1"></path><path d="M4.434328125 12.814593749999998h1.9729687499999997v1.9729687499999997h-1.9729687499999997Z" fill="#fbfbfb" stroke-width="1"></path></g></svg>