<svg xmlns="http://www.w3.org/2000/svg" viewBox="-1.7 -1.7 24 24" id="Content-Files-Open-Book-Bookmark--Streamline-Pixel.svg" height="24" width="24"><desc>Content Files Open Book Bookmark Streamline Icon: https://streamlinehq.com</desc><title>content-files-open-book-bookmark</title><g><path d="M19.71675 2.959453125H20.7v14.78109375h-0.98325Z" fill="#fbfbfb" stroke-width="1"></path><path d="M12.814593749999998 17.740546875h6.90215625v0.98971875H12.814593749999998Z" fill="#fbfbfb" stroke-width="1"></path><path d="M15.77728125 2.959453125h0.98325v0.98325h-0.98325Z" fill="#fbfbfb" stroke-width="1"></path><path d="M14.7875625 8.871890624999999h1.9729687499999997v0.98325h-1.9729687499999997Z" fill="#fbfbfb" stroke-width="1"></path><path d="M11.831343749999998 12.811359374999999h4.9291875v0.98971875h-4.9291875Z" fill="#fbfbfb" stroke-width="1"></path><path d="M11.831343749999998 10.844859375h4.9291875v0.98325h-4.9291875Z" fill="#fbfbfb" stroke-width="1"></path><path d="M11.831343749999998 8.871890624999999h1.9729687499999997v0.98325h-1.9729687499999997Z" fill="#fbfbfb" stroke-width="1"></path><path d="M11.831343749999998 6.898921874999999h3.9459374999999994v0.98971875h-3.9459374999999994Z" fill="#fbfbfb" stroke-width="1"></path><path d="M11.831343749999998 4.925953125h4.9291875v0.98971875h-4.9291875Z" fill="#fbfbfb" stroke-width="1"></path><path d="M11.831343749999998 2.959453125h2.95621875v0.98325h-2.95621875Z" fill="#fbfbfb" stroke-width="1"></path><path d="M10.848093749999999 0.9864843749999999h6.8956875v0.98325H10.848093749999999Z" fill="#fbfbfb" stroke-width="1"></path><path d="M7.891874999999999 18.730265624999998h4.9227187500000005v0.98325H7.891874999999999Z" fill="#fbfbfb" stroke-width="1"></path><path d="M7.891874999999999 8.871890624999999h0.98325v0.98325H7.891874999999999Z" fill="#fbfbfb" stroke-width="1"></path><path d="M7.891874999999999 6.898921874999999h0.98325v0.98971875H7.891874999999999Z" fill="#fbfbfb" stroke-width="1"></path><path d="M7.891874999999999 4.925953125h0.98325v0.98971875H7.891874999999999Z" fill="#fbfbfb" stroke-width="1"></path><path d="M7.891874999999999 2.959453125h0.98325v0.98325H7.891874999999999Z" fill="#fbfbfb" stroke-width="1"></path><path d="M0.98971875 17.740546875H7.891874999999999v0.98971875H0.98971875Z" fill="#fbfbfb" stroke-width="1"></path><path d="M5.91890625 12.811359374999999h2.95621875v0.98971875H5.91890625Z" fill="#fbfbfb" stroke-width="1"></path><path d="M4.9291875 10.844859375h3.9459374999999994v0.98325h-3.9459374999999994Z" fill="#fbfbfb" stroke-width="1"></path><path d="M3.9459374999999994 12.811359374999999h0.98325v0.98971875H3.9459374999999994Z" fill="#fbfbfb" stroke-width="1"></path><path d="m3.9459374999999994 9.855140624999999 0.98325 0 0 -0.98325 0.98971875 0 0 0.98325 0.98325 0 0 -7.885406249999999 2.95621875 0 0 -0.98325 -6.8956875 0 0 0.98325 0.98325 0 0 7.885406249999999z" fill="#fbfbfb" stroke-width="1"></path><path d="m1.9729687499999997 16.757296875 6.90215625 0 0 0.98325 2.95621875 0 0 -0.98325 6.90215625 0 0 -13.797843749999998 0.98325 0 0 -0.98971875 -1.9729687499999997 0 0 13.8043125 -6.8956875 0 0 -13.8043125 -0.98971875 0 0 13.8043125 -6.8956875 0 0 -13.8043125 -1.9729687499999997 0 0 0.98971875 0.98325 0 0 13.797843749999998z" fill="#fbfbfb" stroke-width="1"></path><path d="M0 2.959453125h0.98971875v14.78109375H0Z" fill="#fbfbfb" stroke-width="1"></path></g></svg>