<?xml version="1.0" encoding="UTF-8"?>
<svg width="280px" height="160px" viewBox="0 0 280 160" version="1.1" xmlns="http://www.w3.org/2000/svg" xmlns:xlink="http://www.w3.org/1999/xlink">
    <title>Artboard Copy 11</title>
    <g id="Artboard-Copy-11" stroke="none" stroke-width="1" fill="none" fill-rule="evenodd" stroke-linecap="round" stroke-linejoin="round">
        <path d="M20,100 L20,60 C20,48.954305 28.954305,40 40,40 C51.045695,40 60,48.954305 60,60 L60,100 C60,111.045695 68.954305,120 80,120 C91.045695,120 100,111.045695 100,100 L100,40 C100,28.954305 108.954305,20 120,20 C131.045695,20 140,28.954305 140,40 L140,80 C140,113.137085 166.862915,140 200,140 L240,140 C251.045695,140 260,131.045695 260,120 C260,108.954305 251.045695,100 240,100 L200,100 C188.954305,100 180,91.045695 180,80 C180,68.954305 188.954305,60 200,60 L240,60 L240,60" id="Path-6-Copy-7" stroke="#FBFBFB" stroke-width="38"></path>
    </g>
</svg>